<svg width="16" height="16" viewBox="0 0 16 16" fill="none" xmlns="http://www.w3.org/2000/svg">
<path d="M15.3332 6.47222V14C15.3332 14.7364 14.7362 15.3333 13.9998 15.3333H1.99984C1.26346 15.3333 0.666504 14.7364 0.666504 14V2C0.666504 1.26362 1.26346 0.666664 1.99984 0.666664H9.52762" stroke="white" stroke-width="1.33333" stroke-linecap="round"/>
<path d="M8.99984 9L7.99984 11.6667L6.99984 9L4.6665 8L6.99984 7L7.99984 4.33334L8.99984 7L11.6665 8L8.99984 9Z" fill="white"/>
<path d="M13.1515 4.39394L12.4242 6.33333L11.697 4.39394L10 3.66667L11.697 2.93939L12.4242 1L13.1515 2.93939L15.0909 3.66667L13.1515 4.39394Z" fill="white"/>
</svg>
